<?xml version="1.0"?>
<svg width="110" height="135" xmlns="http://www.w3.org/2000/svg" xmlns:svg="http://www.w3.org/2000/svg" version="1.1">

 <g class="layer">
  <title>Layer 1</title>
  <g id="svg_1">
   <path d="m41.9,29.6c0.4,0 0.9,-0.2 1.2,-0.5c4.1,-3.8 9.4,-5.9 15,-5.9c1,0 1.8,-0.8 1.8,-1.8s-0.8,-1.8 -1.8,-1.8c-6.5,0 -12.6,2.4 -17.4,6.9c-0.7,0.7 -0.8,1.8 -0.1,2.5c0.3,0.5 0.8,0.6 1.3,0.6z" fill="#ffffff" id="svg_2"/>
   <path d="m90.8,45c-0.1,-14.9 -10.2,-27.4 -24,-31.3c-0.2,-4.7 -4,-8.4 -8.8,-8.4c-4.7,0 -8.6,3.7 -8.8,8.4c-13.7,3.8 -23.9,16.4 -24,31.3c-3.7,0.1 -6.7,3.1 -6.7,6.8l0,1.6c0,1.5 0.5,3.1 1.5,4.2c0.6,0.8 1.7,0.9 2.5,0.2c0.7,-0.6 0.9,-1.7 0.2,-2.5c-0.5,-0.6 -0.7,-1.2 -0.7,-2l0,-1.6c0,-1.8 1.5,-3.3 3.3,-3.3l65.2,0c1.8,0 3.3,1.5 3.3,3.3l0,1.6c0,1.7 -1.3,3.1 -2.9,3.3c-1,0.1 -1.7,1 -1.6,1.9c0.1,0.9 0.9,1.6 1.7,1.6l0.2,0c3.5,-0.4 6.1,-3.3 6.1,-6.8l0,-1.6c0.2,-3.6 -2.8,-6.7 -6.5,-6.7zm-32.7,-36.2c2.5,0 4.6,1.8 5.1,4.1c-1.7,-0.3 -3.39,-0.4 -5.1,-0.4c-1.8,0 -3.5,0.2 -5.1,0.4c0.5,-2.3 2.6,-4.1 5.1,-4.1zm0,7.2c16,0 29.1,13 29.2,29l-58.4,0c0.1,-16 13.1,-29 29.2,-29z" fill="#ffffff" id="svg_3"/>
   <path d="m85.3,59.2c-1.5,-1.8 -4,-2.5 -6.2,-1.7l-16.9,5.7l0,-0.1c0,-1.4 -0.6,-2.8 -1.5,-3.8c-1.1,-1.3 -2.7,-2.1 -4.39,-2.3l-17.5,-1.2c-3.7,-0.3 -7.4,0.7 -10.61,2.8l-4.2,2.8c-0.8,0.5 -1,1.6 -0.5,2.4c0.5,0.8 1.61,1 2.4,0.5l4.1,-2.8c2.5,-1.7 5.5,-2.4 8.4,-2.2l17.5,1.2c0.8,0.1 1.5,0.39 1.9,1c0.3,0.3 0.6,0.89 0.7,1.7c0,0.5 -0.1,1.1 -0.4,1.5c0,0.1 -0.1,0.1 -0.1,0.19c-0.5,0.81 -1.4,1.2 -2.3,1.2l-15.1,-0.3c-1,0 -1.7,0.8 -1.8,1.7c0,1 0.8,1.8 1.7,1.8l15.1,0.3l0.2,0c1.7,0 3.4,-0.8 4.6,-2.1l19.6,-6.7c0.8,-0.3 1.7,-0.1 2.4,0.6l0.1,0.11c0.4,0.5 0.6,1.1 0.5,1.69c-0.1,0.61 -0.4,1.2 -0.9,1.5l-28.8,18.61c-2.2,1.4 -4.9,1.8 -7.3,1l-10.2,-3.2c-0.9,-0.3 -1.9,0.2 -2.2,1.2c-0.3,0.9 0.2,1.9 1.2,2.2l10.2,3.2c1.2,0.4 2.4,0.6 3.6,0.6c2.3,0 4.6,-0.7 6.7,-2l28.8,-18.5c1.4,-0.9 2.3,-2.3 2.5,-3.9c0.2,-1.6 -0.2,-3.2 -1.2,-4.4c0,-0.2 -0.1,-0.2 -0.1,-0.3z" fill="#ffffff" id="svg_4"/>
   <path d="m19.8,64.9c-1.2,-2.3 -4.1,-3.3 -6.4,-2.1l-6.9,3.6c-1.1,0.6 -2,1.6 -2.39,2.8c-0.4,1.2 -0.3,2.5 0.3,3.6l9.89,19.2c0.61,1.1 1.61,2 2.81,2.4c0.5,0.2 1,0.2 1.5,0.2c0.8,0 1.5,-0.2 2.19,-0.5l6.9,-3.5c1.1,-0.6 2,-1.6 2.4,-2.8c0.4,-1.2 0.3,-2.5 -0.3,-3.61l-10,-19.29zm6.9,21.8c-0.1,0.3 -0.3,0.6 -0.6,0.7l-6.9,3.6c-0.3,0.2 -0.6,0.2 -1,0.1c-0.3,-0.1 -0.6,-0.3 -0.7,-0.6l-9.9,-19.2c-0.2,-0.3 -0.2,-0.6 -0.1,-1c0.1,-0.3 0.3,-0.6 0.6,-0.7l6.9,-3.6c0.2,-0.1 0.4,-0.1 0.6,-0.1c0.5,0 0.9,0.3 1.1,0.7l9.9,19.2c0.2,0.3 0.2,0.6 0.1,0.9z" fill="#ffffff" id="svg_5"/>
   <path d="m19.1,82.5c-1.2,0.6 -1.6,2 -1,3.2c0.6,1.2 2,1.6 3.2,1c1.2,-0.6 1.6,-2 1,-3.2c-0.6,-1.2 -2,-1.6 -3.2,-1z" fill="#ffffff" id="svg_6"/>
   <path d="m12.3,24l11.7,0c1,0 1.8,-0.8 1.8,-1.8s-0.8,-1.8 -1.8,-1.8l-11.7,0c-1,0 -1.8,0.8 -1.8,1.8s0.8,1.8 1.8,1.8z" fill="#ffffff" id="svg_7"/>
   <path d="m8.3,32.6l11.7,0c1,0 1.8,-0.8 1.8,-1.8s-0.8,-1.8 -1.8,-1.8l-11.7,0c-1,0 -1.8,0.8 -1.8,1.8s0.8,1.8 1.8,1.8z" fill="#ffffff" id="svg_8"/>
   <path d="m16,41.2c1,0 1.8,-0.8 1.8,-1.8s-0.8,-1.8 -1.8,-1.8l-11.7,0c-1,0 -1.8,0.8 -1.8,1.8s0.8,1.8 1.8,1.8l11.7,0z" fill="#ffffff" id="svg_9"/>
  </g>
 </g>
</svg>